<svg width="1200" height="900" viewBox="0 0 1200 900" fill="none" xmlns="http://www.w3.org/2000/svg">
  <rect width="1200" height="900" fill="#F7F4ED"/>
  <rect x="70" y="90" width="480" height="720" rx="36" fill="#E5E7EB"/>
  <rect x="650" y="90" width="480" height="720" rx="36" fill="#FFF8ED"/>
  <text x="160" y="180" fill="#6B7280" font-family="Arial, sans-serif" font-size="54" font-weight="700">ПРЕДИ</text>
  <text x="742" y="180" fill="#92400E" font-family="Arial, sans-serif" font-size="54" font-weight="700">СЛЕД</text>
  <g fill="#D1D5DB">
    <rect x="140" y="240" width="150" height="150" rx="10"/>
    <rect x="310" y="240" width="150" height="150" rx="10"/>
    <rect x="140" y="410" width="150" height="150" rx="10"/>
    <rect x="310" y="410" width="150" height="150" rx="10"/>
  </g>
  <g fill="#E7D3B2">
    <rect x="720" y="240" width="150" height="150" rx="10"/>
    <rect x="890" y="240" width="150" height="150" rx="10"/>
    <rect x="720" y="410" width="150" height="150" rx="10"/>
    <rect x="890" y="410" width="150" height="150" rx="10"/>
  </g>
  <text x="310" y="760" fill="#4B5563" font-family="Arial, sans-serif" font-size="34" text-anchor="middle">Смяна на плочки</text>
  <text x="890" y="760" fill="#92400E" font-family="Arial, sans-serif" font-size="34" text-anchor="middle">Нов гранитогрес</text>
</svg>
